# xmcd
#
# Track frame offsets: 
#        150
#        12500
#        35336
#        47800
#        61286
#        84038
#        103703
#        116245
#        131857
#        151013
#        164520
#        182257
#        201103
#        218917
#        235452
#        254522
#
# Disc length: 3610 seconds
#
# Revision: 2
# Processed by: cddbd v1.5.2PL0 Copyright (c) Steve Scherf et al.
# Submitted via: ExactAudioCopy v0.99pb5
#
DISCID=da0e1810
DTITLE=Various Artist - Famous 8 - The Finest Female Jazz Today
DYEAR=2009
DGENRE=Jazz
TTITLE0=Melody Gardot - Your Heart Is As Black As Night
TTITLE1=Madeleine Peyroux - You Can't Do Me
TTITLE2=Imelda May - Big Bad Handsome Man
TTITLE3=Rickie Lee Jones - The Moon is Made of Gold
TTITLE4=Rebekka Bakken - Powder Room Collapse
TTITLE5=Kristin Asbjørnsen - Rain, Oh Lord
TTITLE6=Dee Dee Bridgewater - Mother's Son-In-Low
TTITLE7=Roberta Gambarini With Roy Hargrove Big Band - La Puerta
TTITLE8=Mari Boine - Lene Májjá
TTITLE9=Cristina Branco - Uma Outra Noite
TTITLE10=Bebel Gilberto - Sun Is Shining
TTITLE11=Erin Boheme - Don't Be Something You Ain't
TTITLE12=Tok Tok Tok - As We Are
TTITLE13=Jane Monheit - Get Out Of Town
TTITLE14=Randy Crawford and Joe Sample - Lead Me On
TTITLE15=Maria João and Mário Laginha - Modern Mode - I'm Old Fashioned
EXTD=YEAR: 2009
EXTT0=
EXTT1=
EXTT2=
EXTT3=
EXTT4=
EXTT5=
EXTT6=
EXTT7=
EXTT8=
EXTT9=
EXTT10=
EXTT11=
EXTT12=
EXTT13=
EXTT14=
EXTT15=
PLAYORDER=
